<svg width="2562" height="2383" xmlns="http://www.w3.org/2000/svg" xmlns:xlink="http://www.w3.org/1999/xlink" xml:space="preserve" overflow="hidden"><defs><clipPath id="clip0"><rect x="919" y="46" width="2562" height="2383"/></clipPath><linearGradient x1="2794" y1="1700" x2="2794" y2="2429" gradientUnits="userSpaceOnUse" spreadMethod="reflect" id="fill1"><stop offset="0" stop-color="#2B4288"/><stop offset="0.06" stop-color="#2B4288"/><stop offset="0.78" stop-color="#EE4868"/><stop offset="0.92" stop-color="#E97132"/><stop offset="1" stop-color="#E97132"/></linearGradient><linearGradient x1="3257.26" y1="888.355" x2="1142.74" y2="2662.65" gradientUnits="userSpaceOnUse" spreadMethod="reflect" id="fill2"><stop offset="0" stop-color="#156082"/><stop offset="0.08" stop-color="#156082"/><stop offset="0.21" stop-color="#2B4288"/><stop offset="0.78" stop-color="#EE4868"/><stop offset="0.92" stop-color="#E97132"/><stop offset="1" stop-color="#E97132"/></linearGradient><linearGradient x1="1045.07" y1="1492.07" x2="3180.93" y2="258.928" gradientUnits="userSpaceOnUse" spreadMethod="reflect" id="fill3"><stop offset="0" stop-color="#156082"/><stop offset="0.13" stop-color="#2B4288"/><stop offset="0.59" stop-color="#EE4868"/><stop offset="0.86" stop-color="#FF8E44"/><stop offset="1" stop-color="#FF8E44"/></linearGradient></defs><g clip-path="url(#clip0)" transform="translate(-919 -46)"><path d="M2142 2060.97C2233.73 1991.36 2402.07 1874.78 2498.69 1818.71 2595.31 1762.64 2648.39 1743.99 2721.71 1724.54 2795.02 1705.09 2869.7 1695.54 2938.59 1702.02 3007.47 1708.5 3076.35 1732.05 3135 1763.44 3193.66 1794.83 3252.31 1848.4 3290.5 1890.36 3328.69 1932.33 3341.99 1971.57 3364.16 2015.24 3386.33 2058.92 3409.85 2112.15 3423.49 2152.41 3437.13 2192.67 3426.22 2188.23 3446 2256.81 3419.06 2375.21 3325.96 2424.34 3192.29 2428.78 3058.62 2433.22 2973.03 2370.09 2889.48 2295.71 2805.94 2221.33 2730.91 2137.73 2641.91 2093.04 2505.85 2027.87 2495.62 2036.06 2394.34 2029.57 2344.9 2029.91 2218.04 2028.21 2142 2060.97Z" fill="url(#fill1)" fill-rule="evenodd"/><path d="M1298.55 1155C1152.15 1392.5 959.053 1748.1 932.72 1889.35 817.673 2506.45 1444.81 2543.79 2113.48 2088.64 2392.07 1899 2574.68 1764.57 2832.17 1720.1 3081.34 1677.06 3303.45 1940.2 3346.11 2014.93 3388.77 2089.66 3425.62 2186.23 3444.39 2266.76 3448.83 2255.16 3510.94 2080.11 3462.82 1853.18 3414.7 1626.26 3199.38 1298.39 2762.56 1298.32 2367.06 1298.27 2044.88 1541.63 1677.35 1662.77 1389.67 1685.29 1396.49 1682.56 1304.69 1650.48 1212.89 1618.41 1215.62 1516.03 1214.6 1433.45 1213.58 1350.87 1266.82 1228.71 1298.55 1155Z" fill="url(#fill2)" fill-rule="evenodd"/><path d="M3058 1237.31C2912.02 1194.32 2714.53 1139.38 2366.96 1258.47 2251.33 1022.68 2171.4 948.067 2064.07 1012.79 1956.75 1077.5 1786.09 1519.28 1722.99 1646.78 1577.57 1717.3 1062.07 1810.22 1187.48 1343.77 1331.08 1093.32 1677.17 494.468 1863.51 236.163 2049.86-22.1422 2335.69-12.5884 2489.75 236.163 2643.81 484.915 2863.58 896.77 3058 1237.31Z" fill="url(#fill3)" fill-rule="evenodd"/></g></svg>