<svg width="169" height="179" xmlns="http://www.w3.org/2000/svg" xmlns:xlink="http://www.w3.org/1999/xlink" xml:space="preserve" overflow="hidden"><g transform="translate(-823 -950)"><path d="M941.5 990C941.5 1009.05 926.278 1024.5 907.5 1024.5 888.722 1024.5 873.5 1009.05 873.5 990 873.5 970.946 888.722 955.5 907.5 955.5 926.278 955.5 941.5 970.946 941.5 990Z" stroke="#EE2962" stroke-width="11.336" stroke-linecap="square" stroke-miterlimit="8" fill="none" fill-rule="evenodd"/><path d="M869.5 1077.5 945.5 1077.5 937.9 1123.5 877.1 1123.5 869.5 1077.5Z" stroke="#2B4288" stroke-width="11.336" stroke-linecap="square" stroke-miterlimit="8" fill="none" fill-rule="evenodd"/><path d="M891.929 1043C874.677 1058.33 848.752 1058.33 831.5 1043 850.438 1026.21 879.34 1028.02 896.055 1047.05 903.441 1055.45 907.512 1066.29 907.5 1077.5" stroke="#2B4288" stroke-width="11.336" stroke-linecap="square" stroke-miterlimit="8" fill="none" fill-rule="evenodd"/><path d="M923.071 1043C940.323 1058.33 966.248 1058.33 983.5 1043 964.562 1026.21 935.66 1028.02 918.945 1047.05 911.559 1055.45 907.488 1066.29 907.5 1077.5" stroke="#2B4288" stroke-width="11.336" stroke-linecap="square" stroke-miterlimit="8" fill="none" fill-rule="evenodd"/><path d="M891.814 989.588 907.044 974.358 922.275 989.588 907.044 1004.82Z" stroke="#EE2962" stroke-width="11.336" stroke-linecap="square" stroke-miterlimit="8" fill="none" fill-rule="evenodd"/></g></svg>