<svg width="188" height="171" xmlns="http://www.w3.org/2000/svg" xmlns:xlink="http://www.w3.org/1999/xlink" xml:space="preserve" overflow="hidden"><g transform="translate(-2390 -1189)"><path d="M2398.5 1211.5 2398.5 1234.36C2398.5 1243.83 2413.94 1251.5 2433 1251.5 2452.06 1251.5 2467.5 1243.83 2467.5 1234.36L2467.5 1211.5" stroke="#2B4288" stroke-width="11.336" stroke-linecap="square" stroke-miterlimit="8" fill="none" fill-rule="evenodd"/><path d="M2398.5 1234.5 2398.5 1257.36C2398.5 1266.83 2413.94 1274.5 2433 1274.5 2452.06 1274.5 2467.5 1266.83 2467.5 1257.36L2467.5 1234.5" stroke="#2B4288" stroke-width="11.336" stroke-linecap="square" stroke-miterlimit="8" fill="none" fill-rule="evenodd"/><path d="M2467.5 1276.5 2467.5 1257.5" stroke="#2B4288" stroke-width="11.336" stroke-linecap="square" stroke-miterlimit="8" fill="none" fill-rule="evenodd"/><path d="M2398.5 1257.5 2398.5 1280.36C2398.5 1289.83 2413.72 1297.5 2432.5 1297.5 2438.69 1297.5 2444.5 1296.66 2449.5 1295.2" stroke="#2B4288" stroke-width="11.336" stroke-linecap="square" stroke-miterlimit="8" fill="none" fill-rule="evenodd"/><path d="M2398.5 1280.5 2398.5 1303.36C2398.5 1312.83 2413.72 1320.5 2432.5 1320.5 2438.69 1320.5 2444.5 1319.66 2449.5 1318.2" stroke="#2B4288" stroke-width="11.336" stroke-linecap="square" stroke-miterlimit="8" fill="none" fill-rule="evenodd"/><path d="M2467.5 1211.5C2467.5 1220.89 2452.05 1228.5 2433 1228.5 2413.95 1228.5 2398.5 1220.89 2398.5 1211.5 2398.5 1202.11 2413.95 1194.5 2433 1194.5 2452.05 1194.5 2467.5 1202.11 2467.5 1211.5Z" stroke="#2B4288" stroke-width="11.336" stroke-linecap="square" stroke-miterlimit="8" fill="none" fill-rule="evenodd"/><path d="M2501.5 1234.5 2501.5 1257.36C2501.5 1266.83 2516.72 1274.5 2535.5 1274.5 2554.28 1274.5 2569.5 1266.83 2569.5 1257.36L2569.5 1234.5" stroke="#2B4288" stroke-width="11.336" stroke-linecap="square" stroke-miterlimit="8" fill="none" fill-rule="evenodd"/><path d="M2518.5 1295.18C2523.5 1296.64 2529.3 1297.5 2535.5 1297.5 2554.28 1297.5 2569.5 1289.83 2569.5 1280.36L2569.5 1257.5" stroke="#2B4288" stroke-width="11.336" stroke-linecap="square" stroke-miterlimit="8" fill="none" fill-rule="evenodd"/><path d="M2501.5 1257.5 2501.5 1276.5" stroke="#2B4288" stroke-width="11.336" stroke-linecap="square" stroke-miterlimit="8" fill="none" fill-rule="evenodd"/><path d="M2518.5 1318.19C2523.5 1319.65 2529.31 1320.5 2535.5 1320.5 2554.28 1320.5 2569.5 1312.83 2569.5 1303.36L2569.5 1280.5" stroke="#2B4288" stroke-width="11.336" stroke-linecap="square" stroke-miterlimit="8" fill="none" fill-rule="evenodd"/><path d="M2569.5 1234.5C2569.5 1243.89 2554.28 1251.5 2535.5 1251.5 2516.72 1251.5 2501.5 1243.89 2501.5 1234.5 2501.5 1225.11 2516.72 1217.5 2535.5 1217.5 2554.28 1217.5 2569.5 1225.11 2569.5 1234.5Z" stroke="#2B4288" stroke-width="11.336" stroke-linecap="square" stroke-miterlimit="8" fill="none" fill-rule="evenodd"/><path d="M2449.5 1291.5 2449.5 1314.36C2449.5 1323.83 2464.94 1331.5 2484 1331.5 2503.06 1331.5 2518.5 1323.83 2518.5 1314.36L2518.5 1291.5" stroke="#EE2962" stroke-width="11.336" stroke-linecap="square" stroke-miterlimit="8" fill="none" fill-rule="evenodd"/><path d="M2449.5 1314.5 2449.5 1337.36C2449.5 1346.83 2464.94 1354.5 2484 1354.5 2503.06 1354.5 2518.5 1346.83 2518.5 1337.36L2518.5 1314.5" stroke="#EE2962" stroke-width="11.336" stroke-linecap="square" stroke-miterlimit="8" fill="none" fill-rule="evenodd"/><path d="M2518.5 1291.5C2518.5 1300.89 2503.05 1308.5 2484 1308.5 2464.95 1308.5 2449.5 1300.89 2449.5 1291.5 2449.5 1282.11 2464.95 1274.5 2484 1274.5 2503.05 1274.5 2518.5 1282.11 2518.5 1291.5Z" stroke="#EE2962" stroke-width="11.336" stroke-linecap="square" stroke-miterlimit="8" fill="none" fill-rule="evenodd"/></g></svg>