<svg width="168" height="171" xmlns="http://www.w3.org/2000/svg" xmlns:xlink="http://www.w3.org/1999/xlink" xml:space="preserve" overflow="hidden"><g transform="translate(-2924 -954)"><path d="M2980.5 1027.5 3035.5 998.5" stroke="#EE2962" stroke-width="11.336" stroke-miterlimit="8" fill="none" fill-rule="evenodd"/><path d="M2980.5 1051.5 3035.5 1080.5" stroke="#EE2962" stroke-width="11.336" stroke-miterlimit="8" fill="none" fill-rule="evenodd"/><path d="M2983.5 1039.5C2983.5 1054.41 2971.41 1066.5 2956.5 1066.5 2941.59 1066.5 2929.5 1054.41 2929.5 1039.5 2929.5 1024.59 2941.59 1012.5 2956.5 1012.5 2971.41 1012.5 2983.5 1024.59 2983.5 1039.5Z" stroke="#2B4288" stroke-width="11.336" stroke-linecap="square" stroke-miterlimit="8" fill="none" fill-rule="evenodd"/><path d="M3086.5 986C3086.5 1000.64 3074.41 1012.5 3059.5 1012.5 3044.59 1012.5 3032.5 1000.64 3032.5 986 3032.5 971.365 3044.59 959.5 3059.5 959.5 3074.41 959.5 3086.5 971.365 3086.5 986Z" stroke="#2B4288" stroke-width="11.336" stroke-linecap="square" stroke-miterlimit="8" fill="none" fill-rule="evenodd"/><path d="M3086.5 1093C3086.5 1107.64 3074.41 1119.5 3059.5 1119.5 3044.59 1119.5 3032.5 1107.64 3032.5 1093 3032.5 1078.36 3044.59 1066.5 3059.5 1066.5 3074.41 1066.5 3086.5 1078.36 3086.5 1093Z" stroke="#2B4288" stroke-width="11.336" stroke-linecap="square" stroke-miterlimit="8" fill="none" fill-rule="evenodd"/></g></svg>